<svg xmlns="http://www.w3.org/2000/svg" viewBox="0 0 768 768"><defs><style>.cls-1{isolation:isolate;}.cls-2{fill:#ffd200;}.cls-3{fill:#362065;}.cls-4{fill:#6c81bf;}.cls-5{fill:#666;mix-blend-mode:multiply;}</style></defs><title>icon</title><g class="cls-1"><g id="Layer_2" data-name="Layer 2"><g id="Layer_1-2" data-name="Layer 1"><rect class="cls-2" width="768" height="768"/><path class="cls-3" d="M384.08,301.25h0A130.13,130.13,0,0,0,254,431.37V561.5H384.08A130.13,130.13,0,0,0,514.2,431.37h0A130.12,130.12,0,0,0,384.08,301.25Zm82.83,130.12a82.83,82.83,0,0,1-82.83,82.84H301.24V431.37a82.84,82.84,0,0,1,82.84-82.83h0a82.83,82.83,0,0,1,82.83,82.83Z"/><path class="cls-4" d="M360.48,206.5H254v94.75h-.15v16.44a105.8,105.8,0,0,0,15.95,51.55,130.65,130.65,0,0,1,33.78-40,58.84,58.84,0,0,1-2.3-16.3V253.78h59.12a59.12,59.12,0,0,1,59.12,59.12h0A59.12,59.12,0,0,1,360.35,372h0a58.78,58.78,0,0,1-26.68-6.37,83.08,83.08,0,0,0-27.94,38.78,106.08,106.08,0,0,0,54.75,15.13h0A106.52,106.52,0,0,0,467,313h0A106.53,106.53,0,0,0,360.48,206.5Z"/><path class="cls-5" d="M384.08,561.5h3.25v0C386.25,561.49,385.17,561.5,384.08,561.5Z"/><path class="cls-5" d="M387.33,348.76v-.14c-1.08,0-2.16-.08-3.25-.08a82.84,82.84,0,0,0-82.84,82.83v82.84h9V431.37A82.82,82.82,0,0,1,387.33,348.76Z"/><path class="cls-5" d="M410.71,312.9h0A59.12,59.12,0,0,1,356,371.84c1.45.11,2.91.18,4.38.18h0a59.12,59.12,0,0,0,59.12-59.12h0a59.12,59.12,0,0,0-59.12-59.12h-8.77A59.12,59.12,0,0,1,410.71,312.9Z"/><path class="cls-3" d="M253.71,588.54h12c6.36,0,13.43,1.59,13.43,11,0,4.24-2.53,7.66-7.48,8.66v.11c5.48.42,9.3,4.42,9.3,10.25,0,9.6-8.3,11.66-14,11.66H253.71Zm3.89,18h8.06c8.07,0,9.6-4.42,9.6-7,0-5.83-4.12-7.48-9.07-7.48H257.6Zm0,20.14h8.89c9.13,0,10.6-5.07,10.6-8,0-6.19-5.07-8.6-10-8.6H257.6Z"/><path class="cls-3" d="M303.94,589.6a2.65,2.65,0,1,1-2.65,2.65A2.64,2.64,0,0,1,303.94,589.6ZM302.17,603h3.54v27.21h-3.54Z"/><path class="cls-3" d="M340.27,602.32c8.36,0,14.31,6,14.31,14.31s-5.95,14.31-14.31,14.31-14.31-6-14.31-14.31S331.91,602.32,340.27,602.32Zm0,25.44c6.66,0,10.78-5,10.78-11.13s-4.12-11.13-10.78-11.13-10.77,5-10.77,11.13S333.62,627.76,340.27,627.76Z"/><path class="cls-3" d="M374.84,585.71h3.53v44.52h-3.53Z"/><path class="cls-3" d="M403.1,624.93a2.83,2.83,0,1,1-2.82,2.83A2.8,2.8,0,0,1,403.1,624.93Z"/><path class="cls-3" d="M427.25,610.68c0-2-.3-6.24-.3-7.66h3.53c.06,2,.12,4.24.24,4.77h.18a10.16,10.16,0,0,1,9.3-5.47,8.08,8.08,0,0,1,8.18,5.89,9.67,9.67,0,0,1,9.25-5.89c8.48,0,10.36,5.77,10.36,11.72v16.19h-3.53v-16c0-4.41-1.24-8.71-6.83-8.71-6.54,0-8.24,5.53-8.24,9.42v15.31h-3.54V613.86c0-5-1.82-8.36-5.65-8.36-5.24,0-9.42,3.65-9.42,11.13v13.6h-3.53Z"/><path class="cls-3" d="M513.22,625.11c-2.77,4.12-7,5.83-11.78,5.83-8.3,0-13.78-6-13.78-14.37,0-8.13,5.65-14.25,13.6-14.25,8.37,0,12.78,6.42,12.78,12.72v2.47H491.19c0,2.94,2.06,10.25,10.31,10.25a11,11,0,0,0,9.13-4.83Zm-2.71-10.78c0-4.83-4.18-8.83-9.42-8.83-7.72,0-9.9,7.42-9.9,8.83Z"/></g></g></g></svg>